<mxfile host="Electron" agent="Mozilla/5.0 (Macintosh; Intel Mac OS X 10_15_7) AppleWebKit/537.36 (KHTML, like Gecko) draw.io/26.0.3 Chrome/130.0.6723.137 Electron/33.2.1 Safari/537.36" version="26.0.3">
  <diagram name="Page-1" id="5Kq254IauyLJfopZDCEu">
    <mxGraphModel dx="153" dy="95" grid="1" gridSize="10" guides="1" tooltips="1" connect="1" arrows="1" fold="1" page="1" pageScale="1" pageWidth="4681" pageHeight="3300" math="0" shadow="0">
      <root>
        <mxCell id="0" />
        <mxCell id="1" parent="0" />
        <mxCell id="bSSRsyHyCUEeB3kbSapK-3" style="edgeStyle=orthogonalEdgeStyle;rounded=0;orthogonalLoop=1;jettySize=auto;html=1;" edge="1" parent="1" source="bSSRsyHyCUEeB3kbSapK-1" target="bSSRsyHyCUEeB3kbSapK-2">
          <mxGeometry relative="1" as="geometry" />
        </mxCell>
        <mxCell id="bSSRsyHyCUEeB3kbSapK-30" style="edgeStyle=orthogonalEdgeStyle;rounded=0;orthogonalLoop=1;jettySize=auto;html=1;entryX=0;entryY=0.5;entryDx=0;entryDy=0;" edge="1" parent="1" source="bSSRsyHyCUEeB3kbSapK-1" target="bSSRsyHyCUEeB3kbSapK-12">
          <mxGeometry relative="1" as="geometry" />
        </mxCell>
        <mxCell id="bSSRsyHyCUEeB3kbSapK-1" value="fanpico 0804D" style="rounded=0;whiteSpace=wrap;html=1;" vertex="1" parent="1">
          <mxGeometry x="690" y="480" width="210" height="290" as="geometry" />
        </mxCell>
        <mxCell id="bSSRsyHyCUEeB3kbSapK-15" style="edgeStyle=orthogonalEdgeStyle;rounded=0;orthogonalLoop=1;jettySize=auto;html=1;entryX=0.5;entryY=1;entryDx=0;entryDy=0;dashed=1;dashPattern=1 1;" edge="1" parent="1" source="bSSRsyHyCUEeB3kbSapK-2" target="bSSRsyHyCUEeB3kbSapK-11">
          <mxGeometry relative="1" as="geometry" />
        </mxCell>
        <mxCell id="bSSRsyHyCUEeB3kbSapK-16" style="edgeStyle=orthogonalEdgeStyle;rounded=0;orthogonalLoop=1;jettySize=auto;html=1;exitX=0.5;exitY=0;exitDx=0;exitDy=0;entryX=0.5;entryY=1;entryDx=0;entryDy=0;dashed=1;dashPattern=1 1;" edge="1" parent="1" source="bSSRsyHyCUEeB3kbSapK-2" target="bSSRsyHyCUEeB3kbSapK-10">
          <mxGeometry relative="1" as="geometry" />
        </mxCell>
        <mxCell id="bSSRsyHyCUEeB3kbSapK-17" style="edgeStyle=orthogonalEdgeStyle;rounded=0;orthogonalLoop=1;jettySize=auto;html=1;entryX=0.5;entryY=1;entryDx=0;entryDy=0;dashed=1;dashPattern=1 1;" edge="1" parent="1" source="bSSRsyHyCUEeB3kbSapK-2" target="bSSRsyHyCUEeB3kbSapK-9">
          <mxGeometry relative="1" as="geometry" />
        </mxCell>
        <mxCell id="bSSRsyHyCUEeB3kbSapK-18" style="edgeStyle=orthogonalEdgeStyle;rounded=0;orthogonalLoop=1;jettySize=auto;html=1;exitX=0.5;exitY=0;exitDx=0;exitDy=0;entryX=0.5;entryY=1;entryDx=0;entryDy=0;dashed=1;dashPattern=1 1;" edge="1" parent="1" source="bSSRsyHyCUEeB3kbSapK-2" target="bSSRsyHyCUEeB3kbSapK-13">
          <mxGeometry relative="1" as="geometry" />
        </mxCell>
        <mxCell id="bSSRsyHyCUEeB3kbSapK-25" style="edgeStyle=orthogonalEdgeStyle;rounded=0;orthogonalLoop=1;jettySize=auto;html=1;entryX=0;entryY=0.5;entryDx=0;entryDy=0;dashed=1;dashPattern=1 1;" edge="1" parent="1" source="bSSRsyHyCUEeB3kbSapK-2" target="bSSRsyHyCUEeB3kbSapK-24">
          <mxGeometry relative="1" as="geometry" />
        </mxCell>
        <mxCell id="bSSRsyHyCUEeB3kbSapK-26" value="5V USB-C" style="edgeLabel;html=1;align=center;verticalAlign=middle;resizable=0;points=[];" vertex="1" connectable="0" parent="bSSRsyHyCUEeB3kbSapK-25">
          <mxGeometry x="-0.3308" y="-1" relative="1" as="geometry">
            <mxPoint as="offset" />
          </mxGeometry>
        </mxCell>
        <mxCell id="bSSRsyHyCUEeB3kbSapK-2" value="power board" style="rounded=0;whiteSpace=wrap;html=1;" vertex="1" parent="1">
          <mxGeometry x="690" y="240" width="210" height="150" as="geometry" />
        </mxCell>
        <mxCell id="bSSRsyHyCUEeB3kbSapK-5" value="" style="endArrow=classic;html=1;rounded=0;exitX=0.571;exitY=0;exitDx=0;exitDy=0;exitPerimeter=0;" edge="1" parent="1" source="bSSRsyHyCUEeB3kbSapK-1">
          <mxGeometry width="50" height="50" relative="1" as="geometry">
            <mxPoint x="870" y="510" as="sourcePoint" />
            <mxPoint x="810" y="390" as="targetPoint" />
          </mxGeometry>
        </mxCell>
        <mxCell id="bSSRsyHyCUEeB3kbSapK-6" style="edgeStyle=orthogonalEdgeStyle;rounded=0;orthogonalLoop=1;jettySize=auto;html=1;" edge="1" parent="1">
          <mxGeometry relative="1" as="geometry">
            <mxPoint x="830" y="480" as="sourcePoint" />
            <mxPoint x="830" y="390" as="targetPoint" />
          </mxGeometry>
        </mxCell>
        <mxCell id="bSSRsyHyCUEeB3kbSapK-7" value="" style="endArrow=classic;html=1;rounded=0;exitX=0.571;exitY=0;exitDx=0;exitDy=0;exitPerimeter=0;" edge="1" parent="1">
          <mxGeometry width="50" height="50" relative="1" as="geometry">
            <mxPoint x="845" y="480" as="sourcePoint" />
            <mxPoint x="845" y="390" as="targetPoint" />
          </mxGeometry>
        </mxCell>
        <mxCell id="bSSRsyHyCUEeB3kbSapK-8" value="4x fan PWM&lt;br&gt;(12V)" style="text;html=1;align=center;verticalAlign=middle;whiteSpace=wrap;rounded=0;" vertex="1" parent="1">
          <mxGeometry x="850" y="410" width="90" height="30" as="geometry" />
        </mxCell>
        <mxCell id="bSSRsyHyCUEeB3kbSapK-9" value="NF-A20 5V PWM&lt;br&gt;max: 800 rpm&lt;br&gt;&lt;b&gt;BACK (7)&lt;/b&gt;" style="rounded=0;whiteSpace=wrap;html=1;fillColor=#999999;" vertex="1" parent="1">
          <mxGeometry x="835" y="120" width="120" height="60" as="geometry" />
        </mxCell>
        <mxCell id="bSSRsyHyCUEeB3kbSapK-10" value="NF-A12x25 5V PWM&lt;br&gt;max: 2000 rpm&lt;br&gt;&lt;b&gt;TOP (6)&lt;/b&gt;" style="rounded=0;whiteSpace=wrap;html=1;fillColor=#999999;" vertex="1" parent="1">
          <mxGeometry x="700" y="120" width="120" height="60" as="geometry" />
        </mxCell>
        <mxCell id="bSSRsyHyCUEeB3kbSapK-11" value="NF-A12x25 5V PWM&lt;br&gt;max: 2000 rpm&lt;br&gt;&lt;b&gt;BOTTOM (5)&lt;/b&gt;" style="rounded=0;whiteSpace=wrap;html=1;fillColor=#999999;" vertex="1" parent="1">
          <mxGeometry x="570" y="120" width="120" height="60" as="geometry" />
        </mxCell>
        <mxCell id="bSSRsyHyCUEeB3kbSapK-12" value="NF-A4x20 PWM (12V)&lt;div&gt;max: 5000 rpm&lt;br&gt;&lt;b&gt;INTERNAL&lt;/b&gt;&lt;/div&gt;" style="rounded=0;whiteSpace=wrap;html=1;fillColor=#999999;" vertex="1" parent="1">
          <mxGeometry x="1030" y="480" width="130" height="60" as="geometry" />
        </mxCell>
        <mxCell id="bSSRsyHyCUEeB3kbSapK-13" value="5V (not connected)&lt;br&gt;max: N/A rpm&lt;br&gt;&lt;b&gt;FAN (8)&lt;/b&gt;" style="rounded=0;whiteSpace=wrap;html=1;fillColor=#999999;" vertex="1" parent="1">
          <mxGeometry x="970" y="120" width="120" height="60" as="geometry" />
        </mxCell>
        <mxCell id="bSSRsyHyCUEeB3kbSapK-14" value="NF-A8 PWM (12V)&lt;div&gt;max: 2200 rpm&lt;br&gt;&lt;b&gt;PFSENSE&lt;/b&gt;&lt;/div&gt;" style="rounded=0;whiteSpace=wrap;html=1;fillColor=#999999;" vertex="1" parent="1">
          <mxGeometry x="1030" y="550" width="130" height="60" as="geometry" />
        </mxCell>
        <mxCell id="bSSRsyHyCUEeB3kbSapK-19" value="" style="endArrow=classic;html=1;rounded=0;entryX=0.819;entryY=0.997;entryDx=0;entryDy=0;entryPerimeter=0;exitX=0.456;exitY=0.023;exitDx=0;exitDy=0;exitPerimeter=0;" edge="1" parent="1" source="bSSRsyHyCUEeB3kbSapK-20" target="bSSRsyHyCUEeB3kbSapK-1">
          <mxGeometry width="50" height="50" relative="1" as="geometry">
            <mxPoint x="860" y="830" as="sourcePoint" />
            <mxPoint x="910" y="820" as="targetPoint" />
          </mxGeometry>
        </mxCell>
        <mxCell id="bSSRsyHyCUEeB3kbSapK-22" style="edgeStyle=orthogonalEdgeStyle;rounded=0;orthogonalLoop=1;jettySize=auto;html=1;entryX=1;entryY=0.5;entryDx=0;entryDy=0;" edge="1" parent="1" source="bSSRsyHyCUEeB3kbSapK-20" target="bSSRsyHyCUEeB3kbSapK-21">
          <mxGeometry relative="1" as="geometry" />
        </mxCell>
        <mxCell id="bSSRsyHyCUEeB3kbSapK-20" value="12 V / 3A&lt;br&gt;PSU" style="rounded=0;whiteSpace=wrap;html=1;" vertex="1" parent="1">
          <mxGeometry x="830" y="830" width="70" height="60" as="geometry" />
        </mxCell>
        <mxCell id="bSSRsyHyCUEeB3kbSapK-23" style="edgeStyle=orthogonalEdgeStyle;rounded=0;orthogonalLoop=1;jettySize=auto;html=1;entryX=0;entryY=0.5;entryDx=0;entryDy=0;dashed=1;dashPattern=1 1;" edge="1" parent="1" source="bSSRsyHyCUEeB3kbSapK-21" target="bSSRsyHyCUEeB3kbSapK-2">
          <mxGeometry relative="1" as="geometry">
            <Array as="points">
              <mxPoint x="610" y="860" />
              <mxPoint x="610" y="315" />
            </Array>
          </mxGeometry>
        </mxCell>
        <mxCell id="bSSRsyHyCUEeB3kbSapK-21" value="12V &amp;gt; 5V buck&lt;br&gt;converter (max 3A)" style="rounded=0;whiteSpace=wrap;html=1;" vertex="1" parent="1">
          <mxGeometry x="640" y="830" width="120" height="60" as="geometry" />
        </mxCell>
        <mxCell id="bSSRsyHyCUEeB3kbSapK-29" style="edgeStyle=orthogonalEdgeStyle;rounded=0;orthogonalLoop=1;jettySize=auto;html=1;entryX=0;entryY=0.5;entryDx=0;entryDy=0;" edge="1" parent="1" source="bSSRsyHyCUEeB3kbSapK-24" target="bSSRsyHyCUEeB3kbSapK-27">
          <mxGeometry relative="1" as="geometry" />
        </mxCell>
        <mxCell id="bSSRsyHyCUEeB3kbSapK-24" value="Dig2Go" style="rounded=0;whiteSpace=wrap;html=1;" vertex="1" parent="1">
          <mxGeometry x="1030" y="270" width="90" height="90" as="geometry" />
        </mxCell>
        <mxCell id="bSSRsyHyCUEeB3kbSapK-27" value="2x LED strips" style="rounded=0;whiteSpace=wrap;html=1;" vertex="1" parent="1">
          <mxGeometry x="1230" y="270" width="100" height="90" as="geometry" />
        </mxCell>
        <mxCell id="bSSRsyHyCUEeB3kbSapK-31" style="edgeStyle=orthogonalEdgeStyle;rounded=0;orthogonalLoop=1;jettySize=auto;html=1;exitX=1;exitY=0.5;exitDx=0;exitDy=0;entryX=0.014;entryY=0.411;entryDx=0;entryDy=0;entryPerimeter=0;" edge="1" parent="1" source="bSSRsyHyCUEeB3kbSapK-1" target="bSSRsyHyCUEeB3kbSapK-14">
          <mxGeometry relative="1" as="geometry" />
        </mxCell>
        <mxCell id="bSSRsyHyCUEeB3kbSapK-32" value="" style="endArrow=none;html=1;rounded=0;exitX=1.002;exitY=0.863;exitDx=0;exitDy=0;exitPerimeter=0;entryX=0;entryY=0.5;entryDx=0;entryDy=0;" edge="1" parent="1" source="bSSRsyHyCUEeB3kbSapK-1" target="bSSRsyHyCUEeB3kbSapK-33">
          <mxGeometry width="50" height="50" relative="1" as="geometry">
            <mxPoint x="1070" y="770" as="sourcePoint" />
            <mxPoint x="1040" y="726" as="targetPoint" />
          </mxGeometry>
        </mxCell>
        <mxCell id="bSSRsyHyCUEeB3kbSapK-33" value="USB extender" style="rounded=0;whiteSpace=wrap;html=1;" vertex="1" parent="1">
          <mxGeometry x="1035" y="710" width="120" height="40" as="geometry" />
        </mxCell>
        <mxCell id="bSSRsyHyCUEeB3kbSapK-34" value="OLED screen" style="rounded=0;whiteSpace=wrap;html=1;" vertex="1" parent="1">
          <mxGeometry x="1035" y="640" width="120" height="40" as="geometry" />
        </mxCell>
        <mxCell id="bSSRsyHyCUEeB3kbSapK-35" value="" style="endArrow=none;html=1;rounded=0;exitX=1;exitY=0.624;exitDx=0;exitDy=0;exitPerimeter=0;entryX=0;entryY=0.5;entryDx=0;entryDy=0;" edge="1" parent="1" source="bSSRsyHyCUEeB3kbSapK-1" target="bSSRsyHyCUEeB3kbSapK-34">
          <mxGeometry width="50" height="50" relative="1" as="geometry">
            <mxPoint x="940" y="690" as="sourcePoint" />
            <mxPoint x="990" y="640" as="targetPoint" />
          </mxGeometry>
        </mxCell>
        <mxCell id="bSSRsyHyCUEeB3kbSapK-36" value="2x 1-Wire temperature sensor" style="rounded=0;whiteSpace=wrap;html=1;" vertex="1" parent="1">
          <mxGeometry x="1035" y="780" width="125" height="40" as="geometry" />
        </mxCell>
        <mxCell id="bSSRsyHyCUEeB3kbSapK-37" value="" style="endArrow=none;html=1;rounded=0;entryX=0;entryY=0.5;entryDx=0;entryDy=0;exitX=0.999;exitY=0.93;exitDx=0;exitDy=0;exitPerimeter=0;" edge="1" parent="1" source="bSSRsyHyCUEeB3kbSapK-1" target="bSSRsyHyCUEeB3kbSapK-36">
          <mxGeometry width="50" height="50" relative="1" as="geometry">
            <mxPoint x="960" y="840" as="sourcePoint" />
            <mxPoint x="1010" y="790" as="targetPoint" />
          </mxGeometry>
        </mxCell>
        <mxCell id="bSSRsyHyCUEeB3kbSapK-38" value="2x B3950 temperature sensor" style="rounded=0;whiteSpace=wrap;html=1;" vertex="1" parent="1">
          <mxGeometry x="1035" y="840" width="125" height="40" as="geometry" />
        </mxCell>
        <mxCell id="bSSRsyHyCUEeB3kbSapK-39" value="" style="endArrow=none;html=1;rounded=0;entryX=0;entryY=0.5;entryDx=0;entryDy=0;exitX=1.003;exitY=0.971;exitDx=0;exitDy=0;exitPerimeter=0;" edge="1" parent="1" source="bSSRsyHyCUEeB3kbSapK-1" target="bSSRsyHyCUEeB3kbSapK-38">
          <mxGeometry width="50" height="50" relative="1" as="geometry">
            <mxPoint x="911" y="761" as="sourcePoint" />
            <mxPoint x="1045" y="810" as="targetPoint" />
          </mxGeometry>
        </mxCell>
      </root>
    </mxGraphModel>
  </diagram>
</mxfile>
